<?xml version="1.0" standalone="no"?>
<!DOCTYPE svg PUBLIC "-//W3C//DTD SVG 20010904//EN"
 "http://www.w3.org/TR/2001/REC-SVG-20010904/DTD/svg10.dtd">
<svg version="1.0" xmlns="http://www.w3.org/2000/svg"
 width="1024.000000pt" height="1024.000000pt" viewBox="0 0 1024.000000 1024.000000"
 preserveAspectRatio="xMidYMid meet">

<g transform="translate(0.000000,1024.000000) scale(0.100000,-0.100000)"
fill="#fff" stroke="none">
<path d="M4850 10234 c-25 -2 -103 -9 -175 -14 -175 -14 -375 -44 -580 -85
-1316 -267 -2482 -1050 -3230 -2170 -481 -721 -760 -1513 -847 -2400 -7 -74
-13 -265 -13 -445 0 -320 9 -458 46 -715 206 -1446 1014 -2732 2224 -3540 721
-481 1513 -760 2400 -847 74 -7 265 -13 445 -13 320 0 458 9 715 46 1446 206
2732 1014 3540 2224 481 721 760 1513 847 2400 7 74 13 265 13 445 0 320 -9
458 -46 715 -206 1446 -1014 2732 -2224 3540 -716 477 -1514 760 -2385 845
-114 11 -644 21 -730 14z m-295 -2651 c85 -45 125 -114 125 -213 0 -73 -22
-122 -76 -170 -81 -70 43 -65 -1516 -68 l-1408 -2 0 -880 0 -879 1038 -3
c1003 -3 1038 -4 1076 -22 51 -25 104 -79 124 -125 19 -46 19 -145 -1 -192
-24 -59 -73 -106 -133 -129 -54 -20 -71 -20 -1079 -20 l-1025 0 0 -890 0 -890
1403 -3 c771 -2 1414 -7 1428 -11 14 -4 48 -24 75 -44 121 -91 129 -262 17
-363 -76 -68 39 -64 -1668 -64 -1469 0 -1552 1 -1597 18 -55 21 -120 87 -139
143 -21 58 -21 4620 0 4677 19 55 68 106 126 134 l50 23 1570 -3 1570 -2 40
-22z m4418 -11 c66 -46 91 -98 92 -188 0 -94 -35 -155 -114 -196 l-53 -28
-789 0 -789 0 0 -2142 c0 -1712 -3 -2155 -13 -2205 -15 -70 -50 -121 -110
-161 -56 -37 -174 -44 -234 -13 -53 27 -102 76 -124 126 -18 38 -19 130 -19
2218 l0 2177 -781 0 c-589 0 -792 3 -823 12 -52 16 -118 83 -134 136 -37 122
26 259 135 292 15 5 856 8 1868 7 l1840 -2 48 -33z"/>
</g>
</svg>
