<?xml version="1.0" encoding="UTF-8"?>
<svg xmlns="http://www.w3.org/2000/svg" xmlns:xlink="http://www.w3.org/1999/xlink" width="24px" height="24px" viewBox="0 0 20 20" version="1.1">
<g id="surface1">
<style>
path {
fill: black;
stroke: none;
fill-opacity:1;
fill-rule:evenodd;
}
       @media (prefers-color-scheme: dark) {
            path { fill: white; }
        }
</style>
<path  d="M 20 14.246094 L 19.453125 14.246094 L 19.453125 15.308594 C 19.453125 15.679688 19.144531 15.980469 18.777344 15.980469 L 18.089844 15.980469 C 17.722656 15.980469 17.421875 15.679688 17.421875 15.308594 L 17.421875 14.246094 L 12.789062 14.246094 L 12.789062 15.308594 C 12.789062 15.679688 12.488281 15.980469 12.121094 15.980469 L 11.433594 15.980469 C 11.066406 15.980469 10.765625 15.679688 10.765625 15.308594 L 10.765625 14.246094 L 10.230469 14.246094 L 10.230469 6.261719 C 10.230469 5.484375 10.6875 4.917969 11.597656 4.570312 C 13.472656 3.839844 16.761719 3.839844 18.636719 4.570312 C 19.546875 4.921875 20 5.484375 20 6.261719 Z M 8.65625 11.488281 L 8.65625 15.980469 L 7.605469 15.980469 L 7.605469 15.285156 L 1.410156 15.285156 L 1.410156 15.980469 L 0.363281 15.980469 L 0.363281 11.488281 L 0 11.488281 L 0 10.796875 L 0.882812 10.796875 L 1.378906 9.261719 C 1.523438 8.8125 1.761719 8.402344 2.238281 8.402344 L 3.320312 8.402344 L 3.320312 7.796875 C 3.320312 7.523438 3.265625 7.542969 3.519531 7.542969 L 5.53125 7.542969 C 5.742188 7.542969 5.699219 7.527344 5.699219 7.757812 L 5.699219 8.402344 L 6.964844 8.402344 C 7.4375 8.402344 7.710938 8.804688 7.824219 9.261719 L 8.203125 10.796875 L 9.019531 10.796875 L 9.019531 11.488281 Z M 2.933594 13.902344 L 6.039062 13.902344 L 6.039062 14.632812 L 2.933594 14.632812 Z M 0.714844 12.199219 C 1.507812 12.222656 1.988281 12.554688 2.109375 13.242188 L 0.714844 13.242188 Z M 8.203125 12.199219 C 7.417969 12.222656 6.929688 12.554688 6.808594 13.242188 L 8.203125 13.242188 Z M 1.261719 10.796875 L 7.757812 10.796875 L 7.476562 9.515625 C 7.40625 9.164062 7.183594 8.855469 6.820312 8.855469 L 2.328125 8.855469 C 1.96875 8.855469 1.785156 9.167969 1.675781 9.515625 Z M 12.980469 12.261719 L 17.25 12.261719 C 17.289062 12.261719 17.316406 12.308594 17.316406 12.367188 L 17.316406 12.691406 C 17.316406 12.75 17.289062 12.796875 17.25 12.796875 L 12.980469 12.796875 C 12.941406 12.796875 12.914062 12.75 12.914062 12.691406 L 12.914062 12.367188 C 12.914062 12.308594 12.941406 12.261719 12.980469 12.261719 Z M 12.980469 13.074219 L 17.25 13.074219 C 17.289062 13.074219 17.316406 13.125 17.316406 13.179688 L 17.316406 13.503906 C 17.316406 13.558594 17.289062 13.609375 17.25 13.609375 L 12.980469 13.609375 C 12.941406 13.609375 12.914062 13.558594 12.914062 13.503906 L 12.914062 13.179688 C 12.914062 13.125 12.941406 13.074219 12.980469 13.074219 Z M 11.109375 6.304688 L 14.59375 6.304688 C 14.703125 6.304688 14.792969 6.394531 14.792969 6.5 L 14.792969 9.378906 C 14.792969 9.488281 14.703125 9.574219 14.59375 9.574219 L 11.109375 9.574219 C 11.003906 9.574219 10.914062 9.488281 10.914062 9.378906 L 10.914062 6.5 C 10.914062 6.394531 11.003906 6.304688 11.109375 6.304688 Z M 15.621094 6.304688 L 19.101562 6.304688 C 19.214844 6.304688 19.300781 6.394531 19.300781 6.5 L 19.300781 9.378906 C 19.300781 9.488281 19.214844 9.574219 19.101562 9.574219 L 15.621094 9.574219 C 15.511719 9.574219 15.425781 9.488281 15.425781 9.378906 L 15.425781 6.5 C 15.425781 6.394531 15.511719 6.304688 15.621094 6.304688 Z M 19.449219 13.023438 C 19.449219 12.824219 19.375 12.65625 19.242188 12.523438 C 19.101562 12.382812 18.929688 12.316406 18.734375 12.316406 C 18.539062 12.316406 18.371094 12.382812 18.230469 12.523438 C 18.089844 12.660156 18.019531 12.824219 18.019531 13.023438 C 18.019531 13.21875 18.089844 13.382812 18.230469 13.519531 C 18.371094 13.660156 18.539062 13.726562 18.734375 13.726562 C 18.929688 13.726562 19.101562 13.660156 19.242188 13.519531 C 19.375 13.382812 19.449219 13.21875 19.449219 13.023438 Z M 12.210938 13.023438 C 12.210938 12.824219 12.136719 12.65625 12.003906 12.523438 C 11.863281 12.382812 11.695312 12.316406 11.496094 12.316406 C 11.300781 12.316406 11.128906 12.382812 10.988281 12.523438 C 10.855469 12.660156 10.785156 12.824219 10.785156 13.023438 C 10.785156 13.21875 10.855469 13.382812 10.988281 13.519531 C 11.128906 13.660156 11.292969 13.726562 11.496094 13.726562 C 11.695312 13.726562 11.863281 13.660156 12.003906 13.519531 C 12.136719 13.382812 12.210938 13.21875 12.210938 13.023438 Z M 12.210938 13.023438 "/>
</g>
</svg>
